<?xml version="1.0" encoding="utf-8"?>
<!-- Generator: Adobe Illustrator 25.4.1, SVG Export Plug-In . SVG Version: 6.00 Build 0)  -->
<svg version="1.1" xmlns="http://www.w3.org/2000/svg" xmlns:xlink="http://www.w3.org/1999/xlink" x="0px" y="0px"
	 viewBox="0 0 550.6 465.5" style="enable-background:new 0 0 550.6 465.5;" xml:space="preserve">
<style type="text/css">
	.st0{fill:#23D8C2;}
	.st1{fill:url(#SVGID_1_);}
	.st2{fill:#00C8B2;}
</style>
<g id="Layer_2">
</g>
<g id="Layer_3">
</g>
<g id="Layer_4">
	<path class="st0" d="M549.7,426.2c-0.6-1.1-1.5-1.7-2.6-1.7c-0.5,0-1.1,0.1-1.8,0.3c-5.7,1.5-10.6,2.4-14.7,2.6
		c-0.7-6.7-3.1-12.4-7.2-17s-9.4-6.9-16.1-6.9c-5.4,0-10.4,1.5-14.8,4.4c-4.5,2.9-8,7-10.5,12.2c-2.5,5.2-3.8,11.1-3.8,17.8
		c0,1.6,0.1,3.2,0.4,4.8c-2.4,2.2-4.8,4.1-7.3,5.5c-4.2,2.4-8,3.6-11.6,3.6c-8.8,0-13.3-5.1-13.3-15.2c0-3.7,0.5-7,1.6-10.1
		c1.1-3.1,2.4-5.5,4.2-7.3c1.7-1.8,3.6-2.7,5.6-2.7c1.1,0,1.9,0.3,2.4,0.9c0.6,0.6,0.9,1.5,0.9,2.6c0,1.1-0.2,2.4-0.7,3.7
		c-0.1,0.4-0.2,0.9-0.4,1.7c-0.2,0.8-0.3,1.5-0.3,2.1c0,1.4,0.5,2.5,1.5,3.3c1,0.8,2.3,1.2,4,1.2c2.6,0,4.7-1.3,6.4-3.8
		c1.6-2.5,2.4-5.6,2.4-9.3c0-4.5-1.3-8.1-4-11c-2.7-2.8-6.4-4.3-11.2-4.3c-4.9,0-9.6,1.4-14,4.3c-4.5,2.9-8.1,7-10.9,12.3
		c-1,1.9-1.8,3.8-2.4,5.9c-3.1,0.6-6,1-8.5,1.2c-0.7-6.7-3.1-12.4-7.2-17s-9.4-6.9-16.1-6.9c-5.4,0-10.4,1.5-14.8,4.4
		c-0.5,0.3-1,0.7-1.6,1.1c-0.9-0.6-2.2-0.9-3.8-0.9c-6,0-11.2-0.4-15.9-1.2c4.4-11.9,6.6-22.9,6.6-33c0-7-1.6-12.5-4.9-16.5
		c-3.3-4-7.7-6-13.3-6c-4.6,0-8.7,1.2-12.4,3.5c-3.7,2.4-6.7,5.9-8.8,10.7c-2.1,4.8-3.2,10.6-3.2,17.5c0,6.9,1.4,13,4.1,18.3
		c2.7,5.3,6.7,9.6,12.1,12.9c-4.5,9.5-9.4,17.5-14.7,23.8c-5.3,6.3-10.3,9.5-14.8,9.5c-4.5,0-7.8-3.5-10-10.4
		c-2.2-7-3.3-17.1-3.3-30.5c0-12.8,1.3-27,3.9-42.8c0.2-1.4,0.3-2.4,0.3-2.9c0-5-2.9-7.5-8.7-7.5c-3.5,0-6,0.8-7.4,2.4
		c-1.4,1.6-2.6,4.7-3.3,9.3c-2.2,12.3-3.3,26.1-3.3,41.5c0,6.4,0.3,12.4,0.9,17.9c-0.5,0-1,0.1-1.6,0.2c-5.7,1.5-10.6,2.4-14.7,2.6
		c-0.7-6.7-3.1-12.4-7.2-17c-4.1-4.6-9.4-6.9-16.1-6.9c-5.4,0-10.4,1.5-14.8,4.4c-4.5,2.9-8,7-10.5,12.2c-2.5,5.2-3.8,11.1-3.8,17.8
		c0,1.6,0.1,3.2,0.4,4.8c-2.4,2.2-4.8,4.1-7.3,5.5c-4.2,2.4-8,3.6-11.6,3.6c-8.8,0-13.3-5.1-13.3-15.2c0-3.7,0.5-7,1.6-10.1
		c1.1-3.1,2.4-5.5,4.2-7.3c1.7-1.8,3.6-2.7,5.6-2.7c1.1,0,1.9,0.3,2.4,0.9c0.6,0.6,0.9,1.5,0.9,2.6c0,1.1-0.2,2.4-0.7,3.7
		c-0.1,0.4-0.2,0.9-0.4,1.7c-0.2,0.8-0.3,1.5-0.3,2.1c0,1.4,0.5,2.5,1.5,3.3c1,0.8,2.3,1.2,4,1.2c2.6,0,4.7-1.3,6.4-3.8
		s2.4-5.6,2.4-9.3c0-4.5-1.3-8.1-4-11c-2.7-2.8-6.4-4.3-11.2-4.3c-4.9,0-9.6,1.4-14,4.3c-4.5,2.9-8.1,7-10.9,12.3
		c-1,1.9-1.8,3.8-2.4,5.9c-3.1,0.6-6,1-8.5,1.2c-0.7-6.7-3.1-12.4-7.2-17c-4.1-4.6-9.4-6.9-16.1-6.9c-5.4,0-10.4,1.5-14.8,4.4
		c-4.5,2.9-8,7-10.5,12.2c-2.2,4.6-3.5,9.7-3.8,15.4c0,0,0,0,0,0c-1.3,0-2.5,0.6-3.5,1.8c-3.2,3.8-6.7,6.5-10.3,8.2
		c-3.6,1.7-8,2.6-13.1,2.6c-2,0-4.3-0.3-7-0.8c-2.6-0.5-6.4-1.4-11.3-2.6c-8.4-2.1-15.4-3.6-21-4.6c0.7-3.1,1.3-6.7,1.7-10.9l3-29.8
		c1.1-10.8,3.8-18.7,8-23.7c4.2-5,10.2-7.5,17.9-7.5c4.4,0,7.6,1.1,9.8,3.2c2.1,2.1,3.2,5.1,3.2,8.7c0,1.9-0.3,4.1-0.8,6.6
		c-0.4,2.1-0.5,3.5-0.5,4.3c0,2.2,0.7,3.9,2.1,5.1c1.4,1.2,3.3,1.8,5.8,1.8c3.4,0,6.1-1.6,8-4.9c1.9-3.3,2.9-7.6,2.9-12.9
		c0-7.9-2.5-14.3-7.6-19.2c-5.1-4.9-12.3-7.4-21.8-7.4c-5.8,0-11.2,0.9-16.4,2.7c-5.2,1.8-9.8,4.4-13.8,7.9
		c-4.6,4-8.3,8.9-10.9,14.6c-2.6,5.7-4.2,12.9-4.7,21.7l-2.4,38.2h-1.7c-6.8,0-12.3,1.4-16.4,4.3c-4.1,2.8-6.2,6.4-6.2,10.7
		c0,3.5,1.5,6.4,4.4,8.6c2.9,2.2,6.8,3.3,11.8,3.3c8.9,0,15.6-4.1,20.1-12.2c4.6,1.4,9.5,3.2,14.4,5.4c5.5,2.3,10.2,4,14,5.1
		c3.9,1.1,8.1,1.7,12.6,1.7c6.5,0,12-1.2,16.6-3.5c4.6-2.4,9.3-6.5,14.2-12.3c0.2-0.3,0.4-0.6,0.6-0.8c0.3,1,0.7,1.9,1.1,2.8
		c1.9,4.2,4.7,7.6,8.5,10.1c3.7,2.5,8.2,3.8,13.5,3.8c6.2,0,11.8-2.2,16.7-6.6c4.9-4.4,8.2-10.3,9.8-17.7c2.7-0.1,5.3-0.4,7.8-0.8
		c0.3,7.3,2.6,13.2,7.1,17.8c4.8,4.9,11.4,7.3,20,7.3c5.3,0,10.9-1.4,16.6-4.1c3.5-1.7,6.6-3.8,9.5-6.3c1.7,2.6,3.9,4.8,6.5,6.6
		c3.7,2.5,8.2,3.8,13.5,3.8c6.2,0,11.8-2.2,16.7-6.6c4.9-4.4,8.2-10.3,9.8-17.7c6.3-0.3,12.1-1.3,17.3-3.2c0.8-0.2,1.4-0.6,1.9-1.2
		c1,4.7,2.3,9,3.9,12.7c4.5,10.6,11.2,15.9,20.3,15.9c8.8,0,17.7-4.3,26.5-12.9c8.8-8.6,16.3-19.5,22.5-32.5c4.6,1,9.8,1.5,15.5,1.6
		c-2.1,4.8-3.1,10.3-3.1,16.3c0,4.9,1,9.5,2.9,13.7c1.9,4.2,4.7,7.6,8.5,10.1c3.7,2.5,8.2,3.8,13.5,3.8c6.2,0,11.8-2.2,16.7-6.6
		c4.9-4.4,8.2-10.3,9.8-17.7c2.7-0.1,5.3-0.4,7.8-0.8c0.3,7.3,2.6,13.2,7.1,17.8c4.8,4.9,11.4,7.3,20,7.3c5.3,0,10.9-1.4,16.6-4.1
		c3.5-1.7,6.6-3.8,9.5-6.3c1.7,2.6,3.9,4.8,6.5,6.6c3.7,2.5,8.2,3.8,13.5,3.8c6.2,0,11.8-2.2,16.7-6.6c4.9-4.4,8.2-10.3,9.8-17.7
		c6.3-0.3,12.1-1.3,17.3-3.2c2.5-0.8,3.8-3.3,3.8-7.5C550.6,428.8,550.3,427.3,549.7,426.2z M140.1,448.1c-2.1,2.3-4.5,3.4-7.3,3.4
		c-2.5,0-4.7-1.3-6.6-3.8c-1.9-2.5-2.8-6.2-2.8-11c0-6.1,1.2-10.9,3.5-14.2c2.3-3.4,5.2-5.1,8.7-5.1h0.7c-0.3,1.4-0.4,2.8-0.4,4.2
		c0,3.3,0.7,6.5,2.2,9.5c1.4,3,3.5,5.4,6.2,7.2C143.5,442.6,142.2,445.9,140.1,448.1z M247.6,448.1c-2.1,2.3-4.5,3.4-7.3,3.4
		c-2.5,0-4.7-1.3-6.6-3.8c-1.9-2.5-2.8-6.2-2.8-11c0-6.1,1.2-10.9,3.5-14.2c2.3-3.4,5.2-5.1,8.7-5.1h0.7c-0.3,1.4-0.4,2.8-0.4,4.2
		c0,3.3,0.7,6.5,2.2,9.5c1.4,3,3.5,5.4,6.2,7.2C251.1,442.6,249.7,445.9,247.6,448.1z M349.1,401.3c-5.5-4.1-8.3-10.5-8.3-19
		c0-5.1,0.7-9,2.2-11.7c1.5-2.8,3.4-4.1,5.8-4.1c1.7,0,3,0.9,3.9,2.6c1,1.7,1.4,4.4,1.4,8.1C354.2,383.4,352.5,391.5,349.1,401.3z
		 M403.8,448.1c-2.1,2.3-4.5,3.4-7.3,3.4c-2.5,0-4.7-1.3-6.6-3.8c-1.9-2.5-2.8-6.2-2.8-11c0-6.1,1.2-10.9,3.5-14.2
		c2.3-3.4,5.2-5.1,8.7-5.1h0.7c-0.3,1.4-0.4,2.8-0.4,4.2c0,3.3,0.7,6.5,2.2,9.5c1.4,3,3.5,5.4,6.2,7.2
		C407.2,442.6,405.8,445.9,403.8,448.1z M511.3,448.1c-2.1,2.3-4.5,3.4-7.3,3.4c-2.5,0-4.7-1.3-6.6-3.8c-1.9-2.5-2.8-6.2-2.8-11
		c0-6.1,1.2-10.9,3.5-14.2c2.3-3.4,5.2-5.1,8.7-5.1h0.7c-0.3,1.4-0.4,2.8-0.4,4.2c0,3.3,0.7,6.5,2.2,9.5c1.4,3,3.5,5.4,6.2,7.2
		C514.7,442.6,513.4,445.9,511.3,448.1z"/>
	<g>
		<radialGradient id="SVGID_1_" cx="275.318" cy="155.2112" r="155.195" gradientUnits="userSpaceOnUse">
			<stop  offset="0" style="stop-color:#23EFDA"/>
			<stop  offset="0.5146" style="stop-color:#25EDD9"/>
			<stop  offset="0.7" style="stop-color:#2BE6D3"/>
			<stop  offset="0.8321" style="stop-color:#37DBCA"/>
			<stop  offset="0.9383" style="stop-color:#47CABE"/>
			<stop  offset="1" style="stop-color:#55BCB3"/>
		</radialGradient>
		<path class="st1" d="M275.3,0c-85.7,0-155.2,69.5-155.2,155.2c0,85.7,69.5,155.2,155.2,155.2c85.7,0,155.2-69.5,155.2-155.2
			S361.1,0,275.3,0z M347.2,93.5c-9,23.1-18.1,46.2-27.1,69.3c-10.8,27.6-21.6,55.2-32.3,82.8c-2.8,7.3-8.7,11.6-15.9,11.6
			c-7.3,0.1-13.6-4.6-16-11.9c-4.5-13.8-9-27.6-13.5-41.4c-1.3-4.2,0.3-8.1,3.9-9.4c3.7-1.3,7.3,0.7,8.7,5
			c4.4,13.4,8.7,26.8,13,40.2c0.5,1.6,1.1,3.1,2.9,3.5c2.1,0.5,3.6-0.5,4.6-2.9c4.1-10.5,8.2-21.1,12.4-31.6
			c15.5-39.7,31-79.4,46.5-119c0.2-0.5,0.3-0.9,0.5-1.4c0.7-1.7,0.6-3.2-0.7-4.5c-1.3-1.3-2.7-1.4-4.3-0.8
			c-7.8,3.4-15.6,6.8-23.3,10.2c-40.3,17.5-80.6,34.9-120.9,52.4c-1.6,0.7-2.9,1.5-3.1,3.5c-0.2,2.1,0.8,3.5,3,4.3
			c8.1,2.9,16.1,5.8,24.2,8.7c6.5,2.4,13.1,4.7,19.7,7.1c1.2,0.5,2,0.3,3-0.6c19.2-17.2,38.5-34.4,57.7-51.6
			c1.7-1.5,3.4-2.5,5.7-2.4c2.8,0.3,4.8,1.8,5.8,4.7c1,2.9,0.3,5.6-2,7.7c-4,3.6-8,7.2-12,10.8c-16.6,14.8-33.3,29.6-49.8,44.5
			c-2.7,2.4-5.3,2.9-8.6,1.7c-16-5.8-32.1-11.6-48.1-17.4c-7-2.5-11.6-8.8-11.8-16.2c-0.2-8,3.7-14.4,10.8-17.5
			c38-16.5,76-32.9,114.1-49.4c10.4-4.5,20.7-9.1,31.2-13.5c9.8-4.2,20.5,1.7,23,12.5C349.1,86.1,348.6,89.9,347.2,93.5z"/>
		<path class="st2" d="M275.3,0c-85.7,0-155.2,69.5-155.2,155.2c0,85.7,69.5,155.2,155.2,155.2c85.7,0,155.2-69.5,155.2-155.2
			S361.1,0,275.3,0z M376.9,256.8c-27.1,27.1-63.2,42.1-101.6,42.1c-38.4,0-74.4-15-101.6-42.1c-27.1-27.1-42.1-63.2-42.1-101.6
			s15-74.4,42.1-101.6c27.1-27.1,63.2-42.1,101.6-42.1c38.4,0,74.4,15,101.6,42.1C404,80.7,419,116.8,419,155.2
			C419,193.6,404,229.7,376.9,256.8z"/>
	</g>
</g>
</svg>
